<svg width="121" height="54" viewBox="0 0 121 54" fill="none" xmlns="http://www.w3.org/2000/svg">
<rect x="1" y="1" width="23.8" height="23.8" rx="0.939474" fill="#CBE5D9"/>
<rect x="1" y="1" width="23.8" height="23.8" rx="0.939474" stroke="black" stroke-width="1.87895"/>
<path d="M13.0024 19.3732C11.8585 19.3732 10.8561 19.1071 9.99537 18.5747C9.14593 18.0424 8.48903 17.2949 8.02467 16.3322C7.56031 15.3695 7.32812 14.2426 7.32812 12.9514C7.32812 11.615 7.57163 10.4597 8.05864 9.48572C8.54566 8.5117 9.22521 7.75852 10.0973 7.22621C10.9807 6.69389 12.0057 6.42773 13.1723 6.42773C14.0897 6.42773 14.9108 6.60329 15.6357 6.95439C16.3605 7.30549 16.9438 7.75286 17.3855 8.2965C17.8385 8.84015 18.1217 9.41777 18.2349 10.0294C18.2803 10.1993 18.2859 10.3125 18.2519 10.3691C18.2293 10.4258 18.1613 10.4654 18.0481 10.4881L15.8055 10.8278C15.7036 10.8278 15.6357 10.8052 15.6017 10.7599C15.579 10.7146 15.5564 10.6466 15.5337 10.556C15.4658 10.1823 15.3242 9.84249 15.109 9.53669C14.9051 9.23089 14.6333 8.98738 14.2935 8.80617C13.9651 8.61363 13.5687 8.51736 13.1043 8.51736C12.5494 8.51736 12.068 8.6646 11.6603 8.95907C11.2639 9.25354 10.9581 9.7179 10.7429 10.3522C10.539 10.9864 10.4371 11.8189 10.4371 12.8495C10.4371 13.9368 10.5447 14.8032 10.7599 15.4488C10.9864 16.0944 11.3035 16.5644 11.7112 16.8589C12.1303 17.142 12.6286 17.2836 13.2063 17.2836C13.5687 17.2836 13.8858 17.2326 14.1576 17.1307C14.4408 17.0174 14.6786 16.8702 14.8712 16.689C15.075 16.5078 15.2393 16.3039 15.3638 16.0774C15.4884 15.8395 15.579 15.596 15.6357 15.3469L15.6696 14.8542C15.7149 14.6843 15.6583 14.5994 15.4997 14.5994H13.4441C13.3535 14.5994 13.2855 14.5824 13.2402 14.5484C13.1949 14.5031 13.1723 14.4238 13.1723 14.3105V13.0364C13.1723 12.8778 13.2629 12.7985 13.4441 12.7985H17.9801C18.15 12.7985 18.2746 12.8382 18.3539 12.9175C18.4331 12.9854 18.4728 13.0817 18.4728 13.2063V18.9485C18.4728 19.0278 18.4501 19.0901 18.4048 19.1354C18.3595 19.1807 18.2972 19.2033 18.218 19.2033H17.6743C17.5837 19.2033 17.5044 19.1863 17.4365 19.1524C17.3685 19.1071 17.3006 19.0334 17.2326 18.9315L16.7399 17.7083C16.7286 17.6743 16.706 17.6573 16.672 17.6573C16.6493 17.6573 16.6153 17.6857 16.57 17.7423C16.3662 17.9915 16.1113 18.2463 15.8055 18.5068C15.4997 18.756 15.1203 18.9655 14.6673 19.1354C14.2143 19.2939 13.6593 19.3732 13.0024 19.3732Z" fill="black"/>
<rect x="24.8008" y="5.07227" width="23.8" height="23.8" rx="0.939474" fill="#CBE5D9"/>
<rect x="24.8008" y="5.07227" width="23.8" height="23.8" rx="0.939474" stroke="black" stroke-width="1.87895"/>
<path d="M41.7804 18.5178C41.7804 19.707 41.5765 20.6584 41.1688 21.3719C40.7611 22.0854 40.1778 22.5951 39.419 22.9009C38.6601 23.2067 37.7541 23.3596 36.7008 23.3596C35.4662 23.3596 34.4752 23.167 33.7277 22.782C32.9915 22.3856 32.4535 21.8079 32.1138 21.0491C31.7853 20.2789 31.6211 19.3332 31.6211 18.212V10.9238C31.6211 10.6972 31.7117 10.584 31.8929 10.584H34.3393C34.5092 10.584 34.5941 10.6859 34.5941 10.8898V18.5857C34.5941 19.5144 34.7923 20.1883 35.1887 20.6074C35.5965 21.0264 36.1741 21.236 36.9216 21.236C37.3973 21.236 37.8164 21.151 38.1788 20.9811C38.5412 20.7999 38.8244 20.5111 39.0282 20.1147C39.2321 19.7183 39.334 19.1917 39.334 18.5348V10.9068C39.334 10.6916 39.419 10.584 39.5889 10.584H41.5256C41.6955 10.584 41.7804 10.6859 41.7804 10.8898V18.5178Z" fill="black"/>
<rect x="48.5996" y="1" width="23.8" height="23.8" rx="0.939474" fill="#CBE5D9"/>
<rect x="48.5996" y="1" width="23.8" height="23.8" rx="0.939474" stroke="black" stroke-width="1.87895"/>
<path d="M55.8613 6.92044C55.8613 6.70525 55.9519 6.59766 56.1331 6.59766H64.6955C64.8654 6.59766 64.9503 6.69393 64.9503 6.88647V8.41546C64.9503 8.6533 64.8314 8.77223 64.5936 8.77223H59.1572C58.942 8.77223 58.8344 8.86283 58.8344 9.04405V11.5074C58.8344 11.7 58.9193 11.7962 59.0892 11.7962H62.6908C62.8834 11.7962 62.9796 11.8868 62.9796 12.0681V13.699C62.9796 13.7669 62.957 13.8236 62.9117 13.8689C62.8777 13.9142 62.8098 13.9368 62.7078 13.9368H59.0722C58.9137 13.9368 58.8344 14.0048 58.8344 14.1407V16.8079C58.8344 16.9552 58.8967 17.0288 59.0212 17.0288H64.8314C65.0353 17.0288 65.1372 17.1137 65.1372 17.2836V18.8976C65.1372 18.9882 65.1089 19.0618 65.0523 19.1184C65.007 19.175 64.922 19.2034 64.7974 19.2034H56.2351C55.9859 19.2034 55.8613 19.0844 55.8613 18.8466V6.92044Z" fill="black"/>
<rect x="72.4004" y="5.07227" width="23.8" height="23.8" rx="0.939474" fill="#CBE5D9"/>
<rect x="72.4004" y="5.07227" width="23.8" height="23.8" rx="0.939474" stroke="black" stroke-width="1.87895"/>
<path d="M87.019 13.6429C86.7699 13.3711 86.4584 13.1276 86.0847 12.9124C85.7222 12.6972 85.2012 12.5896 84.5217 12.5896C83.8082 12.5896 83.2758 12.7199 82.9247 12.9804C82.5736 13.2295 82.3981 13.5523 82.3981 13.9487C82.3981 14.0846 82.4321 14.2319 82.5 14.3904C82.568 14.549 82.7039 14.7019 82.9078 14.8491C83.1116 14.9964 83.4004 15.1266 83.7742 15.2399L86.4584 16.0044C87.5004 16.2875 88.2592 16.7462 88.7349 17.3805C89.2106 18.0034 89.4484 18.7283 89.4484 19.555C89.4484 20.3479 89.2446 21.0387 88.8369 21.6277C88.4291 22.2053 87.8458 22.6527 87.087 22.9698C86.3282 23.2869 85.4278 23.4455 84.3858 23.4455C83.6156 23.4455 82.8908 23.3605 82.2112 23.1906C81.543 23.0094 80.9484 22.7546 80.4274 22.4262C79.9177 22.0864 79.5157 21.6956 79.2212 21.2539C79.1645 21.1407 79.1419 21.0501 79.1532 20.9821C79.1645 20.9028 79.2212 20.8235 79.3231 20.7443L80.6312 19.8439C80.7672 19.7646 80.8748 19.7306 80.954 19.7419C81.0446 19.7532 81.1239 19.7985 81.1919 19.8778C81.4637 20.2176 81.7299 20.5008 81.9904 20.7273C82.2622 20.9538 82.5736 21.118 82.9247 21.2199C83.2758 21.3219 83.6949 21.3728 84.1819 21.3728C84.9181 21.3728 85.507 21.2596 85.9488 21.0331C86.3905 20.7952 86.6113 20.4328 86.6113 19.9458C86.6113 19.7532 86.566 19.5777 86.4754 19.4191C86.3848 19.2492 86.2376 19.102 86.0337 18.9774C85.8412 18.8415 85.5637 18.7169 85.2012 18.6037L82.6359 17.8731C81.9677 17.6806 81.4071 17.4088 80.954 17.0577C80.501 16.7066 80.1556 16.2932 79.9177 15.8175C79.6912 15.3418 79.5779 14.8435 79.5779 14.3225C79.5779 13.5976 79.7761 12.9464 80.1726 12.3688C80.5803 11.7912 81.1466 11.3381 81.8714 11.0097C82.6076 10.6699 83.4627 10.5 84.4367 10.5C85.0823 10.5 85.6826 10.5736 86.2376 10.7209C86.8039 10.8681 87.3135 11.072 87.7666 11.3325C88.2196 11.5929 88.5877 11.9101 88.8708 12.2838C88.9161 12.3405 88.9501 12.4084 88.9728 12.4877C88.9954 12.5556 88.9614 12.6293 88.8708 12.7085L87.4438 13.7619C87.3758 13.8072 87.3135 13.8241 87.2569 13.8128C87.2003 13.7902 87.121 13.7335 87.019 13.6429Z" fill="black"/>
<rect x="96.1992" y="1" width="23.8" height="23.8" rx="0.939474" fill="#CBE5D9"/>
<rect x="96.1992" y="1" width="23.8" height="23.8" rx="0.939474" stroke="black" stroke-width="1.87895"/>
<path d="M110.818 9.57067C110.569 9.29884 110.257 9.05534 109.883 8.84015C109.521 8.62496 109 8.51736 108.321 8.51736C107.607 8.51736 107.075 8.64761 106.724 8.9081C106.372 9.15727 106.197 9.48006 106.197 9.87646C106.197 10.0124 106.231 10.1596 106.299 10.3182C106.367 10.4767 106.503 10.6296 106.707 10.7769C106.91 10.9241 107.199 11.0544 107.573 11.1676L110.257 11.9321C111.299 12.2153 112.058 12.674 112.534 13.3082C113.009 13.9311 113.247 14.656 113.247 15.4828C113.247 16.2756 113.043 16.9665 112.636 17.5554C112.228 18.133 111.645 18.5804 110.886 18.8975C110.127 19.2147 109.227 19.3732 108.185 19.3732C107.414 19.3732 106.69 19.2883 106.01 19.1184C105.342 18.9372 104.747 18.6823 104.226 18.3539C103.717 18.0141 103.314 17.6234 103.02 17.1817C102.963 17.0684 102.941 16.9778 102.952 16.9098C102.963 16.8306 103.02 16.7513 103.122 16.672L104.43 15.7716C104.566 15.6923 104.674 15.6583 104.753 15.6697C104.843 15.681 104.923 15.7263 104.991 15.8056C105.263 16.1453 105.529 16.4285 105.789 16.655C106.061 16.8815 106.372 17.0457 106.724 17.1477C107.075 17.2496 107.494 17.3006 107.981 17.3006C108.717 17.3006 109.306 17.1873 109.748 16.9608C110.189 16.723 110.41 16.3605 110.41 15.8735C110.41 15.681 110.365 15.5054 110.274 15.3469C110.184 15.177 110.036 15.0297 109.833 14.9052C109.64 14.7692 109.362 14.6447 109 14.5314L106.435 13.8009C105.767 13.6083 105.206 13.3365 104.753 12.9854C104.3 12.6343 103.954 12.2209 103.717 11.7452C103.49 11.2695 103.377 10.7712 103.377 10.2502C103.377 9.52536 103.575 8.87412 103.971 8.2965C104.379 7.71888 104.945 7.26585 105.67 6.9374C106.406 6.59762 107.262 6.42773 108.236 6.42773C108.881 6.42773 109.481 6.50135 110.036 6.64859C110.603 6.79583 111.112 6.99969 111.565 7.26019C112.018 7.52068 112.387 7.83781 112.67 8.21156C112.715 8.26819 112.749 8.33614 112.772 8.41543C112.794 8.48338 112.76 8.557 112.67 8.63628L111.243 9.68959C111.175 9.73489 111.112 9.75188 111.056 9.74055C110.999 9.7179 110.92 9.66127 110.818 9.57067Z" fill="black"/>
<rect x="1" y="24.7988" width="23.8" height="23.8" rx="0.939474" stroke="black" stroke-width="1.87895"/>
<path d="M21.1166 30.3965C21.2865 30.3965 21.4054 30.4475 21.4733 30.5494C21.5413 30.6513 21.5526 30.7759 21.5073 30.9231L18.0416 42.6454C17.9623 42.8833 17.7924 43.0022 17.5319 43.0022H15.6971C15.414 43.0022 15.2385 42.8833 15.1705 42.6454L13.0299 35.2213C13.0073 35.1194 12.9733 35.0684 12.928 35.0684C12.894 35.0571 12.86 35.1194 12.826 35.2553L10.6685 42.6454C10.6005 42.8833 10.4306 43.0022 10.1588 43.0022H8.27303C8.00121 43.0022 7.82566 42.8833 7.74638 42.6454L4.28066 30.9231C4.24668 30.7759 4.26367 30.6513 4.33163 30.5494C4.39958 30.4475 4.5185 30.3965 4.68839 30.3965H6.812C6.95923 30.3965 7.06116 30.4248 7.11779 30.4814C7.18575 30.5267 7.23105 30.5947 7.2537 30.6853L9.44526 38.4152C9.47924 38.5398 9.51322 38.6021 9.54719 38.6021C9.58117 38.6021 9.61515 38.5568 9.64913 38.4662L11.8407 30.6853C11.8633 30.5947 11.903 30.5267 11.9596 30.4814C12.0276 30.4248 12.1352 30.3965 12.2824 30.3965H14.1002C14.2474 30.3965 14.3494 30.4248 14.406 30.4814C14.474 30.5267 14.5249 30.5947 14.5589 30.6853L16.7844 38.5341C16.8071 38.6134 16.8411 38.6587 16.8864 38.67C16.9317 38.67 16.96 38.6304 16.9713 38.5511L19.1289 30.6853C19.1515 30.5947 19.1968 30.5267 19.2648 30.4814C19.3328 30.4248 19.4404 30.3965 19.5876 30.3965H21.1166Z" fill="black"/>
<rect x="24.8008" y="28.8711" width="23.8" height="23.8" rx="0.939474" stroke="black" stroke-width="1.87895"/>
<path d="M34.6959 41.689C34.5486 41.689 34.475 41.7626 34.475 41.9099V46.6837C34.475 46.9442 34.3221 47.0745 34.0163 47.0745H31.8757C31.7285 47.0745 31.6265 47.0461 31.5699 46.9895C31.5246 46.9329 31.502 46.8423 31.502 46.7177V34.7915C31.502 34.5763 31.5926 34.4688 31.7738 34.4688H34.2032C34.3844 34.4688 34.475 34.5707 34.475 34.7745V39.1237C34.475 39.3162 34.5599 39.4125 34.7298 39.4125H38.6542C38.8355 39.4125 38.9261 39.3219 38.9261 39.1407V34.7745C38.9261 34.5707 39.011 34.4688 39.1809 34.4688H41.6103C41.8028 34.4688 41.8991 34.5763 41.8991 34.7915V46.7177C41.8991 46.8423 41.8708 46.9329 41.8142 46.9895C41.7689 47.0461 41.6726 47.0745 41.5254 47.0745H39.3678C39.0733 47.0745 38.9261 46.9442 38.9261 46.6837V41.9099C38.9261 41.7626 38.8468 41.689 38.6882 41.689H34.6959Z" fill="black"/>
<rect x="48.5996" y="24.7988" width="23.8" height="23.8" rx="0.939474" stroke="black" stroke-width="1.87895"/>
<path d="M54.7607 43.0022C54.6588 43.0022 54.5851 42.9569 54.5398 42.8663C54.4945 42.7757 54.4945 42.6567 54.5398 42.5095L58.7701 30.7363C58.8154 30.6117 58.8663 30.5267 58.923 30.4814C58.9796 30.4248 59.0759 30.3965 59.2118 30.3965H61.7601C62.0093 30.3965 62.1791 30.5211 62.2698 30.7702L66.466 42.5435C66.5 42.6341 66.5 42.736 66.466 42.8493C66.432 42.9512 66.3641 43.0022 66.2621 43.0022H63.7648C63.5949 43.0022 63.4873 42.9229 63.442 42.7643L62.5586 40.284C62.5472 40.2273 62.5246 40.182 62.4906 40.1481C62.468 40.1141 62.417 40.0971 62.3377 40.0971H58.1924C58.0792 40.0971 58.0056 40.1537 57.9716 40.267L57.0712 42.7813C57.0485 42.8493 57.0089 42.9059 56.9522 42.9512C56.9069 42.9852 56.8277 43.0022 56.7144 43.0022H54.7607ZM61.6412 37.8376C61.7997 37.8376 61.8507 37.7413 61.7941 37.5488L60.367 33.5734C60.333 33.5054 60.2934 33.4715 60.2481 33.4715C60.2141 33.4715 60.1801 33.5111 60.1461 33.5904L58.7021 37.5488C58.6228 37.7413 58.6738 37.8376 58.855 37.8376H61.6412Z" fill="black"/>
<rect x="72.4004" y="28.8711" width="23.8" height="23.8" rx="0.939474" stroke="black" stroke-width="1.87895"/>
<path d="M79.084 34.7745C79.084 34.6839 79.1123 34.6103 79.1689 34.5537C79.2256 34.4971 79.3105 34.4688 79.4238 34.4688H89.1753C89.2999 34.4688 89.3849 34.4971 89.4302 34.5537C89.4868 34.6103 89.5151 34.6839 89.5151 34.7745V36.3545C89.5151 36.5244 89.4132 36.6093 89.2093 36.6093H86.0324C85.9078 36.6093 85.8455 36.666 85.8455 36.7792V46.7517C85.8455 46.9669 85.7493 47.0745 85.5567 47.0745H83.1273C82.9574 47.0745 82.8725 46.9782 82.8725 46.7856V36.8302C82.8725 36.683 82.8102 36.6093 82.6856 36.6093H79.4068C79.1916 36.6093 79.084 36.5244 79.084 36.3545V34.7745Z" fill="black"/>
<rect x="96.1992" y="24.7988" width="23.8" height="23.8" rx="0.939474" stroke="black" stroke-width="1.87895"/>
<path d="M109.51 42.5945C109.51 42.8663 109.357 43.0022 109.051 43.0022H107.047C106.798 43.0022 106.673 42.8833 106.673 42.6454V40.5388C106.673 40.3349 106.758 40.233 106.928 40.233H109.255C109.425 40.233 109.51 40.3236 109.51 40.5048V42.5945ZM108.966 38.687C108.955 38.8229 108.915 38.9192 108.847 38.9758C108.78 39.0325 108.666 39.0608 108.508 39.0608H107.607C107.471 39.0608 107.381 39.0381 107.335 38.9928C107.302 38.9362 107.273 38.8456 107.251 38.721L106.605 30.7023C106.594 30.6003 106.611 30.5267 106.656 30.4814C106.713 30.4248 106.781 30.3965 106.86 30.3965H109.357C109.538 30.3965 109.618 30.4928 109.595 30.6853L108.966 38.687Z" fill="black"/>
</svg>